<svg width="148" height="63" viewBox="0 0 148 63" fill="none" xmlns="http://www.w3.org/2000/svg">
<g filter="url(#filter0_d_116_32)">
<rect x="6" y="5" width="138" height="48" rx="24" fill="#B65A0F"/>
</g>
<path d="M52.6628 26.5078C52.6031 25.9496 52.3517 25.5149 51.9085 25.2038C51.4696 24.8928 50.8986 24.7372 50.1955 24.7372C49.7012 24.7372 49.2772 24.8118 48.9235 24.9609C48.5698 25.1101 48.2992 25.3125 48.1117 25.5682C47.9242 25.8239 47.8283 26.1158 47.824 26.4439C47.824 26.7166 47.8858 26.9531 48.0094 27.1534C48.1372 27.3537 48.3098 27.5241 48.5272 27.6648C48.7445 27.8011 48.9852 27.9162 49.2495 28.0099C49.5137 28.1037 49.78 28.1825 50.0485 28.2464L51.2757 28.5533C51.77 28.6683 52.2452 28.8239 52.7012 29.0199C53.1614 29.2159 53.5726 29.4631 53.9348 29.7614C54.3013 30.0597 54.5911 30.4197 54.8041 30.8416C55.0172 31.2635 55.1237 31.7578 55.1237 32.3246C55.1237 33.0916 54.9277 33.767 54.5357 34.3509C54.1436 34.9304 53.5769 35.3842 52.8354 35.7124C52.0982 36.0362 51.2054 36.1982 50.1571 36.1982C49.1387 36.1982 48.2544 36.0405 47.5044 35.7251C46.7587 35.4098 46.1749 34.9496 45.753 34.3445C45.3354 33.7393 45.1095 33.0021 45.0754 32.1328H47.4085C47.4426 32.5888 47.5833 32.968 47.8304 33.2706C48.0776 33.5732 48.3993 33.799 48.7956 33.9482C49.1962 34.0973 49.6436 34.1719 50.1379 34.1719C50.6536 34.1719 51.1053 34.0952 51.4931 33.9418C51.8851 33.7841 52.1919 33.5668 52.4135 33.2898C52.6351 33.0085 52.748 32.6804 52.7523 32.3054C52.748 31.9645 52.6479 31.6832 52.4519 31.4616C52.2558 31.2358 51.981 31.0483 51.6273 30.8991C51.2779 30.7457 50.8688 30.6094 50.4 30.4901L48.9107 30.1065C47.8325 29.8295 46.9803 29.4098 46.3539 28.8473C45.7317 28.2805 45.4206 27.5284 45.4206 26.5909C45.4206 25.8196 45.6294 25.1442 46.047 24.5646C46.4689 23.9851 47.0421 23.5355 47.7665 23.2159C48.4909 22.892 49.3112 22.7301 50.2274 22.7301C51.1564 22.7301 51.9703 22.892 52.6692 23.2159C53.3723 23.5355 53.9242 23.9808 54.3247 24.5518C54.7253 25.1186 54.932 25.7706 54.9448 26.5078H52.6628ZM57.3826 24.897V22.9091H67.8272V24.897H63.7811V36H61.4288V24.897H57.3826ZM70.6598 36H68.1286L72.7372 22.9091H75.6648L80.2798 36H77.7486L74.2521 25.5938H74.1499L70.6598 36ZM70.7429 30.8672H77.6463V32.772H70.7429V30.8672ZM82.7241 36V22.9091H87.6332C88.6389 22.9091 89.4826 23.0838 90.1644 23.4332C90.8505 23.7827 91.3683 24.2727 91.7177 24.9034C92.0714 25.5298 92.2482 26.2607 92.2482 27.0959C92.2482 27.9354 92.0693 28.6641 91.7113 29.282C91.3576 29.8956 90.8356 30.3707 90.1453 30.7074C89.4549 31.0398 88.6069 31.206 87.6012 31.206H84.1048V29.2372H87.2816C87.8697 29.2372 88.3512 29.1562 88.7262 28.9943C89.1012 28.8281 89.3782 28.5874 89.5572 28.272C89.7404 27.9524 89.832 27.5604 89.832 27.0959C89.832 26.6314 89.7404 26.2351 89.5572 25.907C89.3739 25.5746 89.0948 25.3232 88.7198 25.1527C88.3448 24.978 87.8612 24.8906 87.2688 24.8906H85.0955V36H82.7241ZM89.4869 30.0682L92.7276 36H90.0813L86.8981 30.0682H89.4869ZM94.5758 24.897V22.9091H105.02V24.897H100.974V36H98.622V24.897H94.5758Z" fill="white"/>
<defs>
<filter id="filter0_d_116_32" x="5" y="5" width="140" height="53" filterUnits="userSpaceOnUse" color-interpolation-filters="sRGB">
<feFlood flood-opacity="0" result="BackgroundImageFix"/>
<feColorMatrix in="SourceAlpha" type="matrix" values="0 0 0 0 0 0 0 0 0 0 0 0 0 0 0 0 0 0 127 0" result="hardAlpha"/>
<feMorphology radius="1" operator="dilate" in="SourceAlpha" result="effect1_dropShadow_116_32"/>
<feOffset dy="4"/>
<feComposite in2="hardAlpha" operator="out"/>
<feColorMatrix type="matrix" values="0 0 0 0 0.552077 0 0 0 0 0.272304 0 0 0 0 0.0355727 0 0 0 1 0"/>
<feBlend mode="normal" in2="BackgroundImageFix" result="effect1_dropShadow_116_32"/>
<feBlend mode="normal" in="SourceGraphic" in2="effect1_dropShadow_116_32" result="shape"/>
</filter>
</defs>
</svg>
