<svg width="242" height="82" viewBox="0 0 242 82" fill="none" xmlns="http://www.w3.org/2000/svg">
<ellipse cx="14.2785" cy="8.45316" rx="14.2785" ry="8.45316" transform="matrix(-0.77313 -0.634248 -0.634248 0.77313 237.866 32.554)" fill="#F3BD13"/>
<ellipse cx="183.401" cy="30.0333" rx="14.2785" ry="8.45316" transform="rotate(-39.3642 183.401 30.0333)" fill="#F3BD13"/>
<g filter="url(#filter0_d_116_28)">
<path d="M209.944 15.1609C211.656 12.0064 215.477 10.6587 218.789 12.0413L223.364 13.9512C226.676 15.3338 228.405 18.9982 227.366 22.4334L223.501 35.2096C222.301 39.1771 217.934 41.2372 214.109 39.6404L207.032 36.6863C203.207 35.0895 201.601 30.5361 203.578 26.8929L209.944 15.1609Z" fill="#F3BD13"/>
</g>
<g filter="url(#filter1_d_116_28)">
<path d="M194.922 15.1609C193.21 12.0064 189.389 10.6587 186.077 12.0413L181.502 13.9512C178.19 15.3338 176.461 18.9982 177.501 22.4334L181.365 35.2096C182.565 39.1771 186.932 41.2372 190.757 39.6404L197.834 36.6863C201.659 35.0895 203.265 30.5361 201.288 26.8929L194.922 15.1609Z" fill="#F3BD13"/>
</g>
<g filter="url(#filter2_d_116_28)">
<path d="M191.069 12.6747C190.668 8.56211 193.901 5 198.033 5H206.865C210.997 5 214.229 8.56211 213.828 12.6747L211.693 34.597C211.344 38.1814 208.331 40.9152 204.73 40.9152H200.168C196.567 40.9152 193.553 38.1814 193.204 34.597L191.069 12.6747Z" fill="#F3BD13"/>
</g>
<path d="M189.376 20.7222C189.376 19.6974 190.206 18.8666 191.231 18.8666H195.399C196.424 18.8666 197.254 19.6974 197.254 20.7222V22.9681C197.254 25.1438 195.491 26.9075 193.315 26.9075V26.9075C191.139 26.9075 189.376 25.1438 189.376 22.9681V20.7222Z" fill="#FFEDB2"/>
<path d="M207.654 20.7222C207.654 19.6974 208.485 18.8666 209.51 18.8666H213.677C214.702 18.8666 215.533 19.6974 215.533 20.7222V22.9681C215.533 25.1438 213.769 26.9075 211.594 26.9075V26.9075C209.418 26.9075 207.654 25.1438 207.654 22.9681V20.7222Z" fill="#FFEDB2"/>
<path d="M231.12 71.29C231.02 70.49 231.08 69.79 231.3 69.19C231.54 68.59 231.87 68.05 232.29 67.57C232.73 67.09 233.21 66.65 233.73 66.25C234.27 65.85 234.77 65.46 235.23 65.08C235.71 64.7 236.1 64.31 236.4 63.91C236.7 63.51 236.85 63.07 236.85 62.59C236.85 61.99 236.7 61.48 236.4 61.06C236.1 60.64 235.66 60.32 235.08 60.1C234.52 59.88 233.84 59.77 233.04 59.77C232.12 59.77 231.28 59.97 230.52 60.37C229.76 60.77 229.01 61.36 228.27 62.14L225.81 59.86C226.77 58.76 227.9 57.88 229.2 57.22C230.52 56.54 231.97 56.2 233.55 56.2C235.01 56.2 236.3 56.42 237.42 56.86C238.56 57.3 239.45 57.97 240.09 58.87C240.75 59.75 241.08 60.86 241.08 62.2C241.08 62.94 240.92 63.59 240.6 64.15C240.3 64.69 239.9 65.18 239.4 65.62C238.92 66.04 238.41 66.45 237.87 66.85C237.33 67.23 236.83 67.63 236.37 68.05C235.91 68.47 235.55 68.94 235.29 69.46C235.03 69.98 234.93 70.59 234.99 71.29H231.12ZM233.07 79.27C232.31 79.27 231.68 79.02 231.18 78.52C230.68 78.02 230.43 77.39 230.43 76.63C230.43 75.85 230.68 75.21 231.18 74.71C231.68 74.21 232.31 73.96 233.07 73.96C233.83 73.96 234.46 74.21 234.96 74.71C235.46 75.21 235.71 75.85 235.71 76.63C235.71 77.39 235.46 78.02 234.96 78.52C234.46 79.02 233.83 79.27 233.07 79.27Z" fill="#B65A0F"/>
<path d="M195.84 53.35L199.53 54.46C198.87 55.98 198.07 57.47 197.13 58.93C196.21 60.39 195.21 61.75 194.13 63.01C193.05 64.25 191.97 65.32 190.89 66.22C190.67 65.98 190.38 65.69 190.02 65.35C189.68 65.01 189.32 64.67 188.94 64.33C188.56 63.97 188.23 63.7 187.95 63.52C189.03 62.72 190.07 61.79 191.07 60.73C192.07 59.67 192.97 58.51 193.77 57.25C194.59 55.97 195.28 54.67 195.84 53.35ZM195.75 57.43H211.62V60.82H194.04L195.75 57.43ZM210.27 57.43H213.93C213.93 57.43 213.93 57.53 213.93 57.73C213.93 57.91 213.93 58.12 213.93 58.36C213.93 58.58 213.92 58.77 213.9 58.93C213.82 61.29 213.74 63.31 213.66 64.99C213.6 66.65 213.51 68.03 213.39 69.13C213.29 70.23 213.17 71.1 213.03 71.74C212.89 72.36 212.71 72.81 212.49 73.09C212.19 73.55 211.86 73.88 211.5 74.08C211.14 74.26 210.74 74.39 210.3 74.47C209.9 74.53 209.39 74.57 208.77 74.59C208.17 74.61 207.52 74.61 206.82 74.59C206.8 74.07 206.7 73.49 206.52 72.85C206.36 72.21 206.14 71.66 205.86 71.2C206.38 71.24 206.85 71.27 207.27 71.29C207.71 71.31 208.06 71.31 208.32 71.29C208.54 71.31 208.72 71.29 208.86 71.23C209 71.15 209.14 71.02 209.28 70.84C209.42 70.66 209.54 70.31 209.64 69.79C209.74 69.25 209.83 68.5 209.91 67.54C209.99 66.56 210.06 65.3 210.12 63.76C210.18 62.2 210.23 60.32 210.27 58.12V57.43ZM192.87 62.98H196.41V75.73C196.41 76.29 196.49 76.72 196.65 77.02C196.83 77.3 197.18 77.49 197.7 77.59C198.22 77.67 199 77.71 200.04 77.71C200.28 77.71 200.64 77.71 201.12 77.71C201.6 77.71 202.15 77.71 202.77 77.71C203.39 77.71 204.04 77.71 204.72 77.71C205.4 77.71 206.06 77.71 206.7 77.71C207.34 77.71 207.91 77.71 208.41 77.71C208.93 77.71 209.33 77.71 209.61 77.71C210.45 77.71 211.08 77.63 211.5 77.47C211.94 77.29 212.25 76.96 212.43 76.48C212.61 76 212.76 75.29 212.88 74.35C213.32 74.63 213.88 74.89 214.56 75.13C215.24 75.37 215.83 75.53 216.33 75.61C216.15 77.01 215.84 78.11 215.4 78.91C214.98 79.71 214.34 80.27 213.48 80.59C212.62 80.91 211.42 81.07 209.88 81.07C209.66 81.07 209.29 81.07 208.77 81.07C208.25 81.07 207.65 81.07 206.97 81.07C206.31 81.07 205.62 81.07 204.9 81.07C204.18 81.07 203.48 81.07 202.8 81.07C202.14 81.07 201.56 81.07 201.06 81.07C200.58 81.07 200.23 81.07 200.01 81.07C198.17 81.07 196.73 80.92 195.69 80.62C194.65 80.32 193.92 79.78 193.5 79C193.08 78.24 192.87 77.16 192.87 75.76V62.98ZM193.89 62.98H205.65V72.67H193.89V69.49H202.11V66.16H193.89V62.98Z" fill="#B65A0F"/>
<path d="M170.25 54.82H184.59V57.55H170.25V54.82ZM175.56 64.42H179.28V66.67H175.56V64.42ZM175.56 68.98H179.28V71.23H175.56V68.98ZM172.62 73.54H182.79V76.09H172.62V73.54ZM174.75 61.54H176.73V74.62H174.75V61.54ZM178.14 61.54H180.12V74.65H178.14V61.54ZM175.92 56.02L179.49 56.17C179.29 57.11 179.06 58.04 178.8 58.96C178.56 59.88 178.33 60.67 178.11 61.33L175.44 61C175.52 60.5 175.59 59.96 175.65 59.38C175.73 58.8 175.79 58.22 175.83 57.64C175.87 57.04 175.9 56.5 175.92 56.02ZM170.79 59.68H184.26V76.99H181.53V62.2H173.43V77.02H170.79V59.68ZM157.38 55.81H169.86V58.39H157.38V55.81ZM159.66 68.98C160.32 71 161.14 72.62 162.12 73.84C163.1 75.06 164.23 75.99 165.51 76.63C166.81 77.25 168.23 77.67 169.77 77.89C171.33 78.11 173.02 78.22 174.84 78.22C175.18 78.22 175.68 78.22 176.34 78.22C177.02 78.22 177.78 78.22 178.62 78.22C179.48 78.22 180.34 78.22 181.2 78.22C182.08 78.2 182.88 78.19 183.6 78.19C184.34 78.19 184.91 78.18 185.31 78.16C185.13 78.4 184.95 78.71 184.77 79.09C184.61 79.47 184.46 79.86 184.32 80.26C184.2 80.66 184.1 81.01 184.02 81.31H182.34H174.75C172.61 81.31 170.65 81.16 168.87 80.86C167.09 80.58 165.47 80.04 164.01 79.24C162.57 78.44 161.3 77.29 160.2 75.79C159.1 74.27 158.18 72.29 157.44 69.85L159.66 68.98ZM161.94 67.03L164.64 67.75C163.98 69.43 163.1 71.03 162 72.55C160.92 74.05 159.72 75.3 158.4 76.3C158.32 76.08 158.18 75.81 157.98 75.49C157.8 75.15 157.61 74.82 157.41 74.5C157.21 74.18 157.02 73.92 156.84 73.72C157.92 72.94 158.91 71.97 159.81 70.81C160.73 69.63 161.44 68.37 161.94 67.03ZM159.03 58.72L161.1 59.32C160.78 60.42 160.34 61.52 159.78 62.62C159.24 63.72 158.66 64.66 158.04 65.44C157.92 65.2 157.72 64.87 157.44 64.45C157.18 64.01 156.94 63.68 156.72 63.46C157.22 62.84 157.67 62.11 158.07 61.27C158.47 60.43 158.79 59.58 159.03 58.72ZM162.18 69.13H167.25V71.68H160.89L162.18 69.13ZM166.38 69.13H167.01L167.52 69.04L169.35 69.91C168.75 71.95 167.91 73.75 166.83 75.31C165.77 76.85 164.53 78.15 163.11 79.21C161.69 80.29 160.15 81.15 158.49 81.79C158.39 81.55 158.23 81.27 158.01 80.95C157.81 80.63 157.59 80.31 157.35 79.99C157.13 79.69 156.92 79.46 156.72 79.3C158.26 78.76 159.68 78.05 160.98 77.17C162.28 76.29 163.39 75.22 164.31 73.96C165.25 72.7 165.94 71.26 166.38 69.64V69.13ZM162.33 53.53H165.33V64.96H162.33V53.53ZM158.82 61.84L160.14 60.43C160.54 60.77 160.94 61.16 161.34 61.6C161.74 62.02 162.05 62.38 162.27 62.68L160.89 64.27C160.67 63.95 160.36 63.56 159.96 63.1C159.56 62.64 159.18 62.22 158.82 61.84ZM167.07 58.66L169.08 59.17C168.86 60.01 168.56 60.87 168.18 61.75C167.8 62.63 167.41 63.38 167.01 64C166.83 63.84 166.56 63.65 166.2 63.43C165.84 63.19 165.54 63.01 165.3 62.89C165.68 62.29 166.02 61.62 166.32 60.88C166.62 60.14 166.87 59.4 167.07 58.66ZM166.98 61.93L168.36 60.52C168.76 60.86 169.17 61.24 169.59 61.66C170.01 62.08 170.33 62.43 170.55 62.71L169.08 64.33C168.86 63.99 168.55 63.6 168.15 63.16C167.75 62.7 167.36 62.29 166.98 61.93ZM162.66 63.25L164.94 64.18C164.46 64.78 163.86 65.39 163.14 66.01C162.42 66.61 161.66 67.17 160.86 67.69C160.06 68.19 159.27 68.6 158.49 68.92C158.27 68.58 157.97 68.19 157.59 67.75C157.21 67.31 156.87 66.95 156.57 66.67C157.31 66.45 158.06 66.16 158.82 65.8C159.6 65.44 160.33 65.04 161.01 64.6C161.69 64.16 162.24 63.71 162.66 63.25ZM165.15 63.22C165.41 63.34 165.78 63.53 166.26 63.79C166.74 64.05 167.25 64.34 167.79 64.66C168.33 64.96 168.83 65.24 169.29 65.5C169.75 65.76 170.09 65.95 170.31 66.07L168.75 68.5C168.45 68.24 168.07 67.94 167.61 67.6C167.15 67.26 166.67 66.91 166.17 66.55C165.67 66.19 165.19 65.86 164.73 65.56C164.27 65.24 163.87 64.98 163.53 64.78L165.15 63.22Z" fill="#B65A0F"/>
<path d="M133.89 69.37L136.8 68.41C137.18 69.35 137.57 70.37 137.97 71.47C138.37 72.57 138.72 73.63 139.02 74.65C139.34 75.67 139.57 76.58 139.71 77.38L136.56 78.55C136.44 77.77 136.24 76.86 135.96 75.82C135.68 74.76 135.36 73.67 135 72.55C134.64 71.41 134.27 70.35 133.89 69.37ZM129.06 54.34L132.27 55.03C131.97 56.57 131.59 58.1 131.13 59.62C130.69 61.12 130.18 62.52 129.6 63.82C129.02 65.12 128.39 66.27 127.71 67.27C127.55 67.05 127.31 66.79 126.99 66.49C126.69 66.19 126.37 65.89 126.03 65.59C125.71 65.27 125.43 65.02 125.19 64.84C125.81 64 126.36 63.02 126.84 61.9C127.34 60.78 127.77 59.57 128.13 58.27C128.51 56.97 128.82 55.66 129.06 54.34ZM127.5 79.39C127.44 79.15 127.34 78.83 127.2 78.43C127.08 78.03 126.95 77.61 126.81 77.17C126.67 76.73 126.53 76.36 126.39 76.06C126.71 75.96 126.99 75.72 127.23 75.34C127.47 74.96 127.73 74.43 128.01 73.75C128.15 73.43 128.34 72.92 128.58 72.22C128.84 71.5 129.12 70.65 129.42 69.67C129.72 68.69 130 67.64 130.26 66.52C130.54 65.4 130.78 64.28 130.98 63.16L134.46 64.03C134.1 65.61 133.67 67.21 133.17 68.83C132.67 70.43 132.14 71.96 131.58 73.42C131.04 74.88 130.49 76.2 129.93 77.38V77.44C129.93 77.44 129.81 77.51 129.57 77.65C129.33 77.77 129.04 77.94 128.7 78.16C128.38 78.36 128.1 78.57 127.86 78.79C127.62 79.01 127.5 79.21 127.5 79.39ZM127.47 79.39L127.26 76.63L128.7 75.58L137.91 73.9C137.95 74.34 138.03 74.84 138.15 75.4C138.27 75.94 138.38 76.38 138.48 76.72C136.28 77.16 134.5 77.53 133.14 77.83C131.78 78.11 130.73 78.35 129.99 78.55C129.25 78.73 128.7 78.88 128.34 79C127.98 79.14 127.69 79.27 127.47 79.39ZM133.29 55.33L136.2 54.19C136.74 55.29 137.28 56.47 137.82 57.73C138.36 58.97 138.83 60.19 139.23 61.39C139.65 62.57 139.95 63.63 140.13 64.57L136.92 65.95C136.76 65.03 136.48 63.96 136.08 62.74C135.7 61.52 135.27 60.27 134.79 58.99C134.31 57.69 133.81 56.47 133.29 55.33ZM138.84 54.94H153.54V58.15H138.84V54.94ZM143.31 66.91V68.53H149.1V66.91H143.31ZM143.31 71.08V72.7H149.1V71.08H143.31ZM143.31 62.8V64.39H149.1V62.8H143.31ZM140.1 60.1H152.43V75.4H140.1V60.1ZM144.81 57.07L148.53 57.58C148.07 58.44 147.58 59.29 147.06 60.13C146.54 60.95 146.07 61.66 145.65 62.26L142.83 61.69C143.09 61.25 143.34 60.76 143.58 60.22C143.82 59.66 144.05 59.11 144.27 58.57C144.49 58.03 144.67 57.53 144.81 57.07ZM143.04 75.34L145.86 77.32C145.1 78.14 144.15 78.93 143.01 79.69C141.87 80.47 140.73 81.09 139.59 81.55C139.39 81.19 139.12 80.76 138.78 80.26C138.46 79.76 138.14 79.33 137.82 78.97C138.46 78.69 139.11 78.35 139.77 77.95C140.43 77.55 141.05 77.12 141.63 76.66C142.21 76.18 142.68 75.74 143.04 75.34ZM146.88 77.47L148.65 75.13C149.25 75.47 149.89 75.87 150.57 76.33C151.25 76.77 151.91 77.22 152.55 77.68C153.19 78.12 153.71 78.52 154.11 78.88L152.25 81.52C151.87 81.14 151.37 80.7 150.75 80.2C150.15 79.72 149.51 79.24 148.83 78.76C148.15 78.28 147.5 77.85 146.88 77.47Z" fill="#B65A0F"/>
<path d="M114.96 56.53H118.74V77.14C118.74 78.22 118.6 79.05 118.32 79.63C118.04 80.23 117.53 80.68 116.79 80.98C116.07 81.28 115.15 81.46 114.03 81.52C112.91 81.6 111.58 81.64 110.04 81.64C109.96 81.28 109.84 80.86 109.68 80.38C109.52 79.92 109.33 79.46 109.11 79C108.91 78.54 108.71 78.15 108.51 77.83C109.25 77.85 109.99 77.87 110.73 77.89C111.49 77.91 112.17 77.92 112.77 77.92C113.37 77.92 113.79 77.92 114.03 77.92C114.37 77.92 114.61 77.86 114.75 77.74C114.89 77.62 114.96 77.4 114.96 77.08V56.53ZM97.83 62.53H101.31V76.51H97.83V62.53ZM99.3 62.53H110.61V74.2H99.3V70.75H107.07V65.95H99.3V62.53ZM95.04 55.51H122.22V59.17H95.04V55.51Z" fill="#B65A0F"/>
<path d="M66.69 58.39H75.9V78.58H66.69V75.43H72.66V61.51H66.69V58.39ZM64.59 58.39H67.86V80.8H64.59V58.39ZM66.57 66.4H74.22V69.52H66.57V66.4ZM68.88 53.5L72.78 54.07C72.46 55.09 72.11 56.1 71.73 57.1C71.37 58.1 71.04 58.95 70.74 59.65L67.86 58.99C68 58.47 68.13 57.89 68.25 57.25C68.39 56.61 68.52 55.96 68.64 55.3C68.76 54.64 68.84 54.04 68.88 53.5ZM79.86 58.15H88.65V61.45H79.86V58.15ZM87.39 58.15H90.72C90.72 58.15 90.72 58.26 90.72 58.48C90.72 58.68 90.72 58.91 90.72 59.17C90.72 59.43 90.71 59.63 90.69 59.77C90.61 63.15 90.51 66.02 90.39 68.38C90.29 70.72 90.16 72.66 90 74.2C89.86 75.72 89.69 76.91 89.49 77.77C89.29 78.63 89.03 79.26 88.71 79.66C88.31 80.24 87.88 80.64 87.42 80.86C86.96 81.08 86.43 81.24 85.83 81.34C85.25 81.42 84.53 81.45 83.67 81.43C82.83 81.43 81.97 81.42 81.09 81.4C81.07 80.9 80.95 80.31 80.73 79.63C80.51 78.97 80.24 78.39 79.92 77.89C80.88 77.97 81.77 78.02 82.59 78.04C83.43 78.06 84.04 78.07 84.42 78.07C84.72 78.07 84.96 78.04 85.14 77.98C85.34 77.9 85.53 77.76 85.71 77.56C85.97 77.3 86.18 76.77 86.34 75.97C86.52 75.15 86.67 74 86.79 72.52C86.91 71.04 87.02 69.17 87.12 66.91C87.22 64.65 87.31 61.96 87.39 58.84V58.15ZM79.95 53.53L83.43 54.34C83.05 55.8 82.58 57.26 82.02 58.72C81.48 60.18 80.88 61.56 80.22 62.86C79.58 64.14 78.92 65.26 78.24 66.22C78.04 66.02 77.75 65.79 77.37 65.53C77.01 65.25 76.64 64.98 76.26 64.72C75.9 64.46 75.58 64.26 75.3 64.12C75.96 63.26 76.58 62.27 77.16 61.15C77.76 60.01 78.29 58.79 78.75 57.49C79.23 56.17 79.63 54.85 79.95 53.53ZM78.48 66.82L81.3 65.23C81.8 65.91 82.33 66.66 82.89 67.48C83.45 68.3 83.98 69.1 84.48 69.88C84.98 70.66 85.39 71.35 85.71 71.95L82.65 73.81C82.37 73.19 81.99 72.48 81.51 71.68C81.05 70.88 80.55 70.06 80.01 69.22C79.49 68.36 78.98 67.56 78.48 66.82Z" fill="#B65A0F"/>
<path d="M42.87 69.58H58.71V72.82H42.87V69.58ZM41.13 77.59H60.24V80.86H41.13V77.59ZM41.58 56.77H60.03V62.41H56.76V59.74H44.7V62.5H41.58V56.77ZM48.87 71.14H52.41V79.15H48.87V71.14ZM31.92 69.73C33.12 69.43 34.56 69.04 36.24 68.56C37.94 68.06 39.65 67.55 41.37 67.03L41.91 70.21C40.33 70.75 38.72 71.28 37.08 71.8C35.46 72.32 33.97 72.8 32.61 73.24L31.92 69.73ZM32.34 59.23H41.22V62.56H32.34V59.23ZM35.46 53.53H38.76V77.89C38.76 78.71 38.67 79.36 38.49 79.84C38.33 80.34 38.02 80.73 37.56 81.01C37.12 81.29 36.56 81.48 35.88 81.58C35.22 81.68 34.39 81.72 33.39 81.7C33.35 81.26 33.24 80.71 33.06 80.05C32.88 79.41 32.68 78.85 32.46 78.37C33.02 78.39 33.53 78.41 33.99 78.43C34.47 78.43 34.8 78.42 34.98 78.4C35.16 78.4 35.28 78.37 35.34 78.31C35.42 78.23 35.46 78.09 35.46 77.89V53.53ZM47.79 54.22L51.15 53.23C51.51 53.91 51.87 54.65 52.23 55.45C52.59 56.25 52.87 56.94 53.07 57.52L49.62 58.69C49.44 58.09 49.17 57.37 48.81 56.53C48.47 55.69 48.13 54.92 47.79 54.22ZM46.86 59.26H50.13C50.07 60.52 49.95 61.64 49.77 62.62C49.59 63.58 49.26 64.44 48.78 65.2C48.32 65.94 47.65 66.58 46.77 67.12C45.91 67.66 44.78 68.1 43.38 68.44C43.26 68.06 43.03 67.61 42.69 67.09C42.35 66.57 42.02 66.17 41.7 65.89C42.84 65.63 43.74 65.32 44.4 64.96C45.08 64.6 45.59 64.16 45.93 63.64C46.29 63.1 46.53 62.47 46.65 61.75C46.77 61.03 46.84 60.2 46.86 59.26ZM51.6 58.96H54.81V63.85C54.81 64.23 54.85 64.5 54.93 64.66C55.01 64.82 55.18 64.9 55.44 64.9C55.54 64.9 55.7 64.9 55.92 64.9C56.14 64.9 56.38 64.9 56.64 64.9C56.9 64.9 57.14 64.9 57.36 64.9C57.58 64.9 57.75 64.9 57.87 64.9C58.15 64.9 58.48 64.89 58.86 64.87C59.24 64.83 59.54 64.78 59.76 64.72C59.8 65.14 59.84 65.62 59.88 66.16C59.92 66.7 59.98 67.16 60.06 67.54C59.82 67.64 59.5 67.71 59.1 67.75C58.72 67.77 58.33 67.78 57.93 67.78C57.81 67.78 57.63 67.78 57.39 67.78C57.15 67.78 56.89 67.78 56.61 67.78C56.33 67.78 56.07 67.78 55.83 67.78C55.59 67.78 55.41 67.78 55.29 67.78C54.29 67.78 53.52 67.65 52.98 67.39C52.46 67.11 52.1 66.68 51.9 66.1C51.7 65.52 51.6 64.76 51.6 63.82V58.96Z" fill="#B65A0F"/>
<path d="M1.44 66.67H28.56V70.33H1.44V66.67ZM6.12 53.86L9.93 54.67C9.55 56.11 9.08 57.52 8.52 58.9C7.98 60.26 7.39 61.54 6.75 62.74C6.11 63.92 5.43 64.96 4.71 65.86C4.45 65.66 4.1 65.44 3.66 65.2C3.24 64.94 2.81 64.7 2.37 64.48C1.93 64.24 1.55 64.06 1.23 63.94C1.97 63.16 2.65 62.23 3.27 61.15C3.89 60.07 4.44 58.91 4.92 57.67C5.42 56.41 5.82 55.14 6.12 53.86ZM6.99 58.27H25.98V61.93H5.19L6.99 58.27ZM16.86 67.42C17.76 70.26 19.23 72.6 21.27 74.44C23.31 76.28 26.05 77.56 29.49 78.28C29.21 78.54 28.91 78.87 28.59 79.27C28.29 79.67 28 80.08 27.72 80.5C27.46 80.94 27.24 81.34 27.06 81.7C24.58 81.06 22.47 80.13 20.73 78.91C18.99 77.69 17.53 76.19 16.35 74.41C15.19 72.63 14.22 70.56 13.44 68.2L16.86 67.42ZM12.96 53.5H16.74V63.07C16.74 64.47 16.65 65.89 16.47 67.33C16.31 68.77 15.97 70.18 15.45 71.56C14.93 72.94 14.17 74.26 13.17 75.52C12.17 76.76 10.85 77.91 9.21 78.97C7.59 80.01 5.58 80.9 3.18 81.64C3.04 81.34 2.83 80.99 2.55 80.59C2.29 80.19 2.01 79.79 1.71 79.39C1.41 79.01 1.13 78.7 0.869995 78.46C3.03 77.84 4.84 77.09 6.3 76.21C7.76 75.33 8.93 74.37 9.81 73.33C10.71 72.29 11.38 71.2 11.82 70.06C12.28 68.9 12.58 67.73 12.72 66.55C12.88 65.37 12.96 64.2 12.96 63.04V53.5Z" fill="#B65A0F"/>
<path d="M143.4 14.08H146.85V37.81H143.4V14.08ZM136.62 16.75H153.36V19.54H136.62V16.75ZM135.72 36.37H153.99V39.19H135.72V36.37ZM137.43 32.23H152.85V34.99H137.43V32.23ZM151.23 11.77L153.3 14.41C152.22 14.63 151.04 14.82 149.76 14.98C148.48 15.12 147.16 15.24 145.8 15.34C144.44 15.44 143.07 15.52 141.69 15.58C140.31 15.62 138.99 15.65 137.73 15.67C137.69 15.29 137.59 14.84 137.43 14.32C137.27 13.8 137.11 13.36 136.95 13C138.19 12.96 139.46 12.91 140.76 12.85C142.08 12.77 143.37 12.68 144.63 12.58C145.89 12.48 147.08 12.36 148.2 12.22C149.34 12.08 150.35 11.93 151.23 11.77ZM140.73 26.89V28.39H149.61V26.89H140.73ZM140.73 23.26V24.76H149.61V23.26H140.73ZM137.61 20.77H152.88V30.88H137.61V20.77ZM130.35 14.32H133.83V39.67H130.35V14.32ZM126.03 19.96H137.04V23.29H126.03V19.96ZM130.53 21.31L132.63 22.21C132.35 23.29 132.01 24.41 131.61 25.57C131.21 26.73 130.77 27.88 130.29 29.02C129.81 30.14 129.3 31.2 128.76 32.2C128.22 33.2 127.66 34.07 127.08 34.81C126.9 34.29 126.64 33.71 126.3 33.07C125.98 32.41 125.68 31.85 125.4 31.39C125.92 30.79 126.43 30.09 126.93 29.29C127.45 28.47 127.94 27.6 128.4 26.68C128.86 25.76 129.27 24.84 129.63 23.92C129.99 23 130.29 22.13 130.53 21.31ZM135 11.83L137.43 14.59C136.41 14.97 135.29 15.32 134.07 15.64C132.85 15.96 131.6 16.24 130.32 16.48C129.06 16.7 127.85 16.89 126.69 17.05C126.61 16.65 126.47 16.19 126.27 15.67C126.07 15.13 125.87 14.67 125.67 14.29C126.77 14.11 127.89 13.9 129.03 13.66C130.19 13.4 131.28 13.11 132.3 12.79C133.34 12.47 134.24 12.15 135 11.83ZM133.77 24.13C133.95 24.27 134.22 24.53 134.58 24.91C134.96 25.27 135.36 25.67 135.78 26.11C136.22 26.55 136.61 26.96 136.95 27.34C137.29 27.7 137.54 27.96 137.7 28.12L135.63 30.97C135.45 30.59 135.21 30.16 134.91 29.68C134.63 29.2 134.32 28.7 133.98 28.18C133.66 27.66 133.34 27.17 133.02 26.71C132.7 26.23 132.42 25.84 132.18 25.54L133.77 24.13Z" fill="#B65A0F"/>
<path d="M94.74 23.35H122.52V27.28H94.74V23.35Z" fill="#B65A0F"/>
<path d="M72.1499 12.85H79.8899V15.88H72.1499V12.85ZM72.1799 19.84H80.0099V22.84H72.1799V19.84ZM72.1499 26.95H80.2799V29.98H72.1499V26.95ZM78.5999 12.85H81.4799C81.4799 12.85 81.4799 12.96 81.4799 13.18C81.4799 13.38 81.4799 13.6 81.4799 13.84C81.4799 14.08 81.47 14.27 81.45 14.41C81.45 17.73 81.4399 20.63 81.4199 23.11C81.3999 25.57 81.3699 27.68 81.3299 29.44C81.3099 31.2 81.2699 32.66 81.2099 33.82C81.1499 34.98 81.0699 35.89 80.9699 36.55C80.8699 37.21 80.7399 37.68 80.5799 37.96C80.3199 38.46 80.04 38.81 79.74 39.01C79.46 39.21 79.1199 39.35 78.7199 39.43C78.3399 39.53 77.9199 39.59 77.4599 39.61C76.9999 39.63 76.51 39.63 75.99 39.61C75.97 39.15 75.8899 38.62 75.7499 38.02C75.6099 37.42 75.4199 36.9 75.1799 36.46C75.5799 36.48 75.9399 36.5 76.2599 36.52C76.5999 36.52 76.8799 36.52 77.0999 36.52C77.2999 36.54 77.4599 36.5 77.5799 36.4C77.6999 36.3 77.8199 36.13 77.9399 35.89C78.0599 35.63 78.1599 35.08 78.2399 34.24C78.3199 33.38 78.38 32.11 78.42 30.43C78.46 28.75 78.4899 26.54 78.5099 23.8C78.5499 21.06 78.5799 17.69 78.5999 13.69V12.85ZM74.0699 14.44H76.95V22.63C76.95 23.87 76.89 25.24 76.77 26.74C76.67 28.24 76.4499 29.77 76.1099 31.33C75.7699 32.89 75.2799 34.4 74.6399 35.86C73.9999 37.3 73.1599 38.6 72.1199 39.76C71.9999 39.56 71.8099 39.31 71.5499 39.01C71.29 38.73 71.02 38.45 70.74 38.17C70.46 37.91 70.2299 37.72 70.0499 37.6C70.9699 36.52 71.7 35.36 72.24 34.12C72.78 32.86 73.1799 31.56 73.4399 30.22C73.6999 28.88 73.87 27.56 73.95 26.26C74.03 24.96 74.0699 23.74 74.0699 22.6V14.44ZM82.71 12.85H88.6799V15.76H85.6499V39.7H82.71V12.85ZM88.1399 12.85H88.6799L89.1 12.73L91.3199 13.99C91.0999 14.99 90.85 16.07 90.57 17.23C90.31 18.39 90.0399 19.53 89.7599 20.65C89.4999 21.75 89.2499 22.73 89.0099 23.59C89.7699 24.91 90.26 26.16 90.4799 27.34C90.6999 28.5 90.8199 29.59 90.84 30.61C90.84 31.65 90.7399 32.52 90.5399 33.22C90.3599 33.9 90.0499 34.41 89.6099 34.75C89.4299 34.93 89.2 35.07 88.92 35.17C88.66 35.27 88.3799 35.35 88.0799 35.41C87.6399 35.47 87.12 35.49 86.52 35.47C86.52 35.05 86.4699 34.56 86.3699 34C86.2699 33.42 86.1099 32.91 85.8899 32.47C86.0699 32.49 86.2399 32.5 86.3999 32.5C86.5599 32.5 86.71 32.5 86.85 32.5C87.11 32.48 87.3299 32.38 87.5099 32.2C87.6499 32.04 87.75 31.78 87.81 31.42C87.87 31.04 87.8999 30.6 87.8999 30.1C87.8999 29.28 87.8 28.34 87.6 27.28C87.42 26.2 86.98 25.07 86.28 23.89C86.46 23.15 86.6399 22.32 86.8199 21.4C86.9999 20.46 87.1699 19.52 87.3299 18.58C87.5099 17.62 87.67 16.74 87.81 15.94C87.95 15.12 88.0599 14.46 88.1399 13.96V12.85ZM65.8199 14.17H71.3699V31.84H65.8199V28.54H68.6399V17.44H65.8199V14.17ZM64.3199 14.17H66.99V34.66H64.3199V14.17Z" fill="#B65A0F"/>
<path d="M32.94 24.34H59.52V27.49H32.94V24.34ZM46.38 29.74H57.6V32.86H46.38V29.74ZM44.7 25.96H48.36V37.06H44.7V25.96ZM40.08 30.73C40.64 32.19 41.42 33.29 42.42 34.03C43.42 34.75 44.62 35.23 46.02 35.47C47.44 35.71 49.02 35.84 50.76 35.86C51.1 35.86 51.57 35.86 52.17 35.86C52.79 35.86 53.48 35.86 54.24 35.86C55 35.86 55.76 35.86 56.52 35.86C57.3 35.84 58.03 35.83 58.71 35.83C59.39 35.81 59.95 35.79 60.39 35.77C60.21 36.05 60.04 36.39 59.88 36.79C59.72 37.19 59.57 37.6 59.43 38.02C59.31 38.46 59.22 38.86 59.16 39.22H57.36H50.58C48.84 39.22 47.27 39.12 45.87 38.92C44.49 38.72 43.25 38.35 42.15 37.81C41.05 37.29 40.08 36.54 39.24 35.56C38.42 34.56 37.7 33.28 37.08 31.72L40.08 30.73ZM37.47 28.12L41.04 28.63C40.56 31.11 39.77 33.29 38.67 35.17C37.59 37.03 36.23 38.55 34.59 39.73C34.41 39.51 34.15 39.24 33.81 38.92C33.49 38.6 33.15 38.28 32.79 37.96C32.45 37.64 32.14 37.39 31.86 37.21C33.4 36.27 34.63 35.02 35.55 33.46C36.47 31.9 37.11 30.12 37.47 28.12ZM39.21 18.94V20.44H52.98V18.94H39.21ZM39.21 15.1V16.57H52.98V15.1H39.21ZM35.73 12.52H56.64V22.99H35.73V12.52Z" fill="#B65A0F"/>
<path d="M13.53 11.62L17.07 12.43C16.65 13.99 16.14 15.54 15.54 17.08C14.94 18.6 14.28 20.03 13.56 21.37C12.86 22.69 12.11 23.85 11.31 24.85C11.09 24.63 10.8 24.37 10.44 24.07C10.1 23.77 9.74002 23.48 9.36002 23.2C9.00002 22.9 8.68002 22.66 8.40002 22.48C9.18002 21.62 9.89002 20.61 10.53 19.45C11.17 18.29 11.74 17.04 12.24 15.7C12.76 14.36 13.19 13 13.53 11.62ZM12.69 24.94L16.2 25.66C15.92 26.94 15.56 28.2 15.12 29.44C14.7 30.66 14.23 31.82 13.71 32.92C13.19 34 12.65 34.95 12.09 35.77C11.87 35.57 11.57 35.35 11.19 35.11C10.81 34.85 10.42 34.61 10.02 34.39C9.64002 34.15 9.31002 33.96 9.03002 33.82C9.89002 32.76 10.63 31.43 11.25 29.83C11.87 28.23 12.35 26.6 12.69 24.94ZM14.19 16.9H26.52V20.23H12.87L14.19 16.9ZM17.64 18.37H21.21V35.68C21.21 36.52 21.12 37.21 20.94 37.75C20.76 38.29 20.39 38.71 19.83 39.01C19.31 39.29 18.68 39.48 17.94 39.58C17.22 39.68 16.37 39.73 15.39 39.73C15.33 39.19 15.17 38.57 14.91 37.87C14.67 37.17 14.42 36.58 14.16 36.1C14.8 36.12 15.4 36.13 15.96 36.13C16.54 36.13 16.93 36.13 17.13 36.13C17.31 36.13 17.44 36.1 17.52 36.04C17.6 35.96 17.64 35.82 17.64 35.62V18.37ZM22.29 25.72L25.5 24.64C26.04 25.68 26.53 26.79 26.97 27.97C27.41 29.13 27.79 30.28 28.11 31.42C28.43 32.54 28.66 33.55 28.8 34.45L25.35 35.65C25.23 34.77 25.02 33.75 24.72 32.59C24.44 31.43 24.09 30.26 23.67 29.08C23.25 27.88 22.79 26.76 22.29 25.72ZM25.53 16.9H26.01L26.58 16.78L29.13 17.26C28.95 18.48 28.74 19.74 28.5 21.04C28.26 22.32 28.03 23.41 27.81 24.31L24.75 23.74C24.83 23.2 24.92 22.57 25.02 21.85C25.12 21.13 25.22 20.38 25.32 19.6C25.42 18.8 25.49 18.05 25.53 17.35V16.9ZM7.11002 11.62L10.5 12.7C9.86002 14.38 9.10002 16.08 8.22002 17.8C7.34002 19.5 6.39002 21.12 5.37002 22.66C4.35002 24.18 3.29002 25.51 2.19002 26.65C2.09002 26.35 1.92002 25.97 1.68002 25.51C1.46002 25.03 1.22002 24.55 0.96002 24.07C0.70002 23.59 0.47002 23.2 0.27002 22.9C1.17002 21.98 2.04002 20.92 2.88002 19.72C3.74002 18.52 4.53002 17.23 5.25002 15.85C5.99002 14.47 6.61002 13.06 7.11002 11.62ZM4.23002 19.93L7.65002 16.51V16.54V39.64H4.23002V19.93Z" fill="#B65A0F"/>
<defs>
<filter id="filter0_d_116_28" x="198.065" y="6.83581" width="34.2665" height="38.0117" filterUnits="userSpaceOnUse" color-interpolation-filters="sRGB">
<feFlood flood-opacity="0" result="BackgroundImageFix"/>
<feColorMatrix in="SourceAlpha" type="matrix" values="0 0 0 0 0 0 0 0 0 0 0 0 0 0 0 0 0 0 127 0" result="hardAlpha"/>
<feOffset/>
<feGaussianBlur stdDeviation="2.33216"/>
<feComposite in2="hardAlpha" operator="out"/>
<feColorMatrix type="matrix" values="0 0 0 0 1 0 0 0 0 1 0 0 0 0 1 0 0 0 0.1 0"/>
<feBlend mode="normal" in2="BackgroundImageFix" result="effect1_dropShadow_116_28"/>
<feBlend mode="normal" in="SourceGraphic" in2="effect1_dropShadow_116_28" result="shape"/>
</filter>
<filter id="filter1_d_116_28" x="172.535" y="6.83581" width="34.2665" height="38.0117" filterUnits="userSpaceOnUse" color-interpolation-filters="sRGB">
<feFlood flood-opacity="0" result="BackgroundImageFix"/>
<feColorMatrix in="SourceAlpha" type="matrix" values="0 0 0 0 0 0 0 0 0 0 0 0 0 0 0 0 0 0 127 0" result="hardAlpha"/>
<feOffset/>
<feGaussianBlur stdDeviation="2.33216"/>
<feComposite in2="hardAlpha" operator="out"/>
<feColorMatrix type="matrix" values="0 0 0 0 1 0 0 0 0 1 0 0 0 0 1 0 0 0 0.1 0"/>
<feBlend mode="normal" in2="BackgroundImageFix" result="effect1_dropShadow_116_28"/>
<feBlend mode="normal" in="SourceGraphic" in2="effect1_dropShadow_116_28" result="shape"/>
</filter>
<filter id="filter2_d_116_28" x="186.371" y="0.335684" width="32.1552" height="45.2439" filterUnits="userSpaceOnUse" color-interpolation-filters="sRGB">
<feFlood flood-opacity="0" result="BackgroundImageFix"/>
<feColorMatrix in="SourceAlpha" type="matrix" values="0 0 0 0 0 0 0 0 0 0 0 0 0 0 0 0 0 0 127 0" result="hardAlpha"/>
<feOffset/>
<feGaussianBlur stdDeviation="2.33216"/>
<feComposite in2="hardAlpha" operator="out"/>
<feColorMatrix type="matrix" values="0 0 0 0 1 0 0 0 0 1 0 0 0 0 1 0 0 0 0.1 0"/>
<feBlend mode="normal" in2="BackgroundImageFix" result="effect1_dropShadow_116_28"/>
<feBlend mode="normal" in="SourceGraphic" in2="effect1_dropShadow_116_28" result="shape"/>
</filter>
</defs>
</svg>
